<svg viewBox="0 0 20 20" x="0" y="0" fill="none" xmlns="http://www.w3.org/2000/svg"><g id="SVG_2" xmlns="http://www.w3.org/2000/svg">
<path id="Vector_5" d="M17.5,8.333c0,5.834 -7.5,10.834 -7.5,10.834c0,0 -7.5,-5 -7.5,-10.834c0,-1.989 0.79,-3.896 2.197,-5.303c1.406,-1.406 3.314,-2.197 5.303,-2.197c1.989,0 3.897,0.791 5.303,2.197c1.407,1.407 2.197,3.314 2.197,5.303z" stroke="#47CF73" stroke-width="1.66667"/>
<path id="Vector_6" d="M10,10.833c1.381,0 2.5,-1.119 2.5,-2.5c0,-1.38 -1.119,-2.5 -2.5,-2.5c-1.381,0 -2.5,1.12 -2.5,2.5c0,1.381 1.119,2.5 2.5,2.5z" stroke="#47CF73" stroke-width="1.66667"/>
</g></svg>