<?xml version="1.0" encoding="UTF-8"?>
<svg id="Capa_2" data-name="Capa 2" xmlns="http://www.w3.org/2000/svg" viewBox="0 0 1720.43 104.16">
  <defs>
    <style>
      .cls-1 {
        fill: #fff;
      }
    </style>
  </defs>
  <g>
    <path class="cls-1" d="M866.21,104.16c-28.72,0-52.08-23.36-52.08-52.08S837.49,0,866.21,0s52.08,23.36,52.08,52.08-23.36,52.08-52.08,52.08ZM866.21,3.07c-27.02,0-49.01,21.98-49.01,49.01s21.98,49.01,49.01,49.01,49.01-21.98,49.01-49.01-21.98-49.01-49.01-49.01Z"/>
    <path class="cls-1" d="M997.58,104.16c-7.23,0-14.34-1.53-21.11-4.55-.56-.25-.91-.8-.91-1.4s.36-1.16.91-1.4c17.7-7.88,29.14-25.43,29.14-44.73s-11.44-36.85-29.14-44.73c-.56-.25-.91-.8-.91-1.4s.36-1.16.91-1.4c6.78-3.02,13.88-4.55,21.11-4.55,28.72,0,52.08,23.36,52.08,52.08s-23.36,52.08-52.08,52.08ZM980.87,98.08c5.42,1.99,11.03,3,16.72,3,27.02,0,49.01-21.98,49.01-49.01s-21.98-49.01-49.01-49.01c-5.69,0-11.3,1.01-16.72,3,17.01,8.97,27.82,26.67,27.82,46s-10.81,37.03-27.82,46Z"/>
    <path class="cls-1" d="M1134.39,104.16c-6.24,0-12.54-1.22-18.73-3.61-.63-.25-1.03-.88-.98-1.56.06-.68.55-1.24,1.21-1.38,21.33-4.53,36.82-23.65,36.82-45.46s-15.57-41.09-37.03-45.53c-.66-.14-1.16-.7-1.22-1.37-.06-.68.34-1.31.97-1.56,6.23-2.44,12.61-3.68,18.96-3.68,28.72,0,52.08,23.36,52.08,52.08s-23.36,52.08-52.08,52.08ZM1121.53,99.27c4.28,1.2,8.59,1.81,12.85,1.81,27.02,0,49.01-21.98,49.01-49.01s-21.98-49.01-49.01-49.01c-4.36,0-8.73.62-13.06,1.86,20.24,6.49,34.45,25.58,34.45,47.22s-14.13,40.57-34.25,47.13Z"/>
    <path class="cls-1" d="M720.05,104.16c-28.72,0-52.08-23.36-52.08-52.08S691.33,0,720.05,0c12.41,0,24.53,4.63,34.13,13.02.33.29.53.71.53,1.16s-.19.86-.53,1.16c-10.74,9.39-16.9,22.78-16.9,36.74s6.16,27.35,16.9,36.74c.33.29.53.71.53,1.16s-.19.86-.53,1.16c-9.6,8.4-21.72,13.03-34.13,13.03ZM720.05,3.07c-27.02,0-49.01,21.98-49.01,49.01s21.98,49.01,49.01,49.01c11.1,0,21.97-3.95,30.79-11.15-10.59-9.9-16.62-23.6-16.62-37.86s6.04-27.96,16.62-37.86c-8.82-7.2-19.68-11.15-30.79-11.15Z"/>
    <path class="cls-1" d="M586.31,104.16c-28.72,0-52.08-23.36-52.08-52.08S557.6,0,586.31,0c9.59,0,19.09,2.76,27.46,7.99.45.28.72.77.72,1.3s-.27,1.02-.72,1.3c-14.51,9.06-23.17,24.57-23.17,41.48s8.66,32.43,23.17,41.48c.45.28.72.77.72,1.3s-.27,1.02-.72,1.3c-8.37,5.23-17.87,7.99-27.46,7.99ZM586.31,3.07c-27.02,0-49.01,21.98-49.01,49.01s21.98,49.01,49.01,49.01c8.23,0,16.39-2.17,23.75-6.29-14.16-9.77-22.53-25.56-22.53-42.72s8.38-32.95,22.53-42.72c-7.36-4.12-15.52-6.29-23.75-6.29Z"/>
  </g>
  <g>
    <path class="cls-1" d="M322.02,87.73l-1.61-62.17,55.39,29.45-53.78,32.72ZM323.54,30.62l1.34,51.86,44.86-27.29-46.2-24.56Z"/>
    <path class="cls-1" d="M286.57,87.73l-1.61-62.17,55.39,29.45-53.78,32.72ZM288.09,30.62l1.34,51.86,44.86-27.29-46.2-24.56Z"/>
    <rect class="cls-1" x="19.08" y="55.09" width="267.45" height="3"/>
    <polygon class="cls-1" points="77.54 86 75.14 84.21 95.68 56.59 75.14 28.98 77.54 27.19 99.41 56.59 77.54 86"/>
    <polygon class="cls-1" points="39.97 86 37.57 84.21 58.11 56.59 37.57 28.98 39.97 27.19 61.85 56.59 39.97 86"/>
    <polygon class="cls-1" points="2.41 86 0 84.21 20.54 56.59 0 28.98 2.41 27.19 24.28 56.59 2.41 86"/>
    <path class="cls-1" d="M233.56,66.73c-5.59,0-10.13-4.55-10.13-10.13s4.55-10.13,10.13-10.13,10.13,4.55,10.13,10.13-4.55,10.13-10.13,10.13ZM233.56,49.46c-3.93,0-7.13,3.2-7.13,7.13s3.2,7.13,7.13,7.13,7.13-3.2,7.13-7.13-3.2-7.13-7.13-7.13Z"/>
    <path class="cls-1" d="M199.56,66.73c-5.59,0-10.13-4.55-10.13-10.13s4.55-10.13,10.13-10.13,10.13,4.55,10.13,10.13-4.55,10.13-10.13,10.13ZM199.56,49.46c-3.93,0-7.13,3.2-7.13,7.13s3.2,7.13,7.13,7.13,7.13-3.2,7.13-7.13-3.2-7.13-7.13-7.13Z"/>
  </g>
  <g>
    <path class="cls-1" d="M1400.02,87.63l-55.39-29.45,53.78-32.72,1.61,62.17ZM1350.69,58.01l46.2,24.56-1.34-51.86-44.86,27.29Z"/>
    <path class="cls-1" d="M1435.47,87.63l-55.39-29.45,53.78-32.72,1.61,62.17ZM1386.14,58.01l46.2,24.56-1.34-51.86-44.86,27.29Z"/>
    <rect class="cls-1" x="1433.9" y="55.09" width="267.45" height="3"/>
    <polygon class="cls-1" points="1642.89 86 1621.02 56.59 1642.89 27.19 1645.29 28.98 1624.75 56.59 1645.29 84.21 1642.89 86"/>
    <polygon class="cls-1" points="1680.46 86 1658.58 56.59 1680.46 27.19 1682.86 28.98 1662.32 56.59 1682.86 84.21 1680.46 86"/>
    <polygon class="cls-1" points="1718.02 86 1696.15 56.59 1718.02 27.19 1720.43 28.98 1699.89 56.59 1720.43 84.21 1718.02 86"/>
    <path class="cls-1" d="M1486.86,66.73c-5.59,0-10.13-4.55-10.13-10.13s4.55-10.13,10.13-10.13,10.13,4.55,10.13,10.13-4.55,10.13-10.13,10.13ZM1486.86,49.46c-3.93,0-7.13,3.2-7.13,7.13s3.2,7.13,7.13,7.13,7.13-3.2,7.13-7.13-3.2-7.13-7.13-7.13Z"/>
    <path class="cls-1" d="M1520.87,66.73c-5.59,0-10.13-4.55-10.13-10.13s4.55-10.13,10.13-10.13,10.13,4.55,10.13,10.13-4.55,10.13-10.13,10.13ZM1520.87,49.46c-3.93,0-7.13,3.2-7.13,7.13s3.2,7.13,7.13,7.13,7.13-3.2,7.13-7.13-3.2-7.13-7.13-7.13Z"/>
  </g>
</svg>